<?xml version="1.0" encoding="UTF-8"?>
<svg width="163px" height="33px" viewBox="0 0 163 33" version="1.1" xmlns="http://www.w3.org/2000/svg" xmlns:xlink="http://www.w3.org/1999/xlink">
    <!-- Generator: Sketch 59.1 (86144) - https://sketch.com -->
    <title>LOGO</title>
    <desc>Created with Sketch.</desc>
    <g id="UI" stroke="none" stroke-width="1" fill="none" fill-rule="evenodd">
        <g id="Desktop-HD---HOME-V1" transform="translate(-42.000000, -46.000000)" fill="#1E1E1E">
            <g id="Header" transform="translate(10.000000, 10.000000)">
                <g id="LOGO" transform="translate(32.000000, 36.000000)">
                    <path d="M28.6962851,21.5521216 L28.4909591,10.2857432 C28.454937,8.58312162 28.4216166,6.37122973 28.4216166,5.00931081 C28.4216166,2.89909459 29.2465227,2.35504054 30.9296552,2.35504054 L30.9296552,1.33382432 C29.5563127,1.40071622 28.4216166,1.43639189 27.493147,1.43639189 C26.4638155,1.43639189 25.2615779,1.40071622 24.0917602,1.33382432 L15.7400365,19.9859595 L7.66478232,1.33382432 C6.28963867,1.40071622 5.25940663,1.43639189 4.43450055,1.43639189 C3.60959448,1.43639189 1.92466077,1.36860811 0.757544751,1.33382432 L0.757544751,2.35504054 C3.02423536,2.52539189 3.40336796,2.8652027 3.40336796,5.0432027 C3.40336796,6.06352703 3.33492597,7.1882027 3.29980442,8.24509459 L2.95759448,20.9723919 C2.88825193,23.5240946 2.64690387,24.2741757 0.000180110497,24.5453108 L0.000180110497,25.5656351 C1.20331823,25.5353108 2.40645635,25.4657432 3.7455779,25.4657432 C5.08650055,25.4657432 6.28963867,25.5353108 7.52609724,25.5656351 L7.52609724,24.5453108 C5.29362762,24.477527 4.70736796,23.6953378 4.70736796,21.9945 L4.70736796,5.62382432 L4.7767105,5.62382432 L13.7822354,25.8046622 L14.779147,25.8046622 L24.0917602,4.39747297 L24.1602022,4.39747297 L24.3655282,17.366473 C24.4006497,18.6918243 24.4348707,20.0537432 24.4348707,21.2453108 C24.4348707,24.0699324 23.9188541,24.3767432 21.5486,24.5453108 L21.5486,25.5656351 C23.2668541,25.5353108 25.2615779,25.4657432 26.5664785,25.4657432 C27.871379,25.4657432 29.8652022,25.5353108 31.5474343,25.5656351 L31.5474343,24.5453108 C29.4185282,24.4427432 28.7296055,24.0012568 28.6962851,21.5521216" id="Fill-1"></path>
                    <path d="M41.1343558,24.6485027 C37.2511735,24.6485027 36.4622895,18.4543135 36.4622895,15.7982595 C36.4622895,13.6211514 36.7720796,11.1702324 40.0005602,11.1702324 C43.745958,11.1702324 44.5033227,17.5008811 44.5033227,20.4610703 C44.5033227,22.5052865 43.9197646,24.6485027 41.1343558,24.6485027 M40.5525989,10.0134486 C36.497411,10.0134486 32.4062011,12.4964757 32.4062011,18.2509622 C32.4062011,21.7882054 34.9493613,25.8043946 40.5525989,25.8043946 C45.7397812,25.8043946 48.696295,22.1975838 48.696295,18.2509622 C48.696295,12.4964757 44.6059856,10.0134486 40.5525989,10.0134486" id="Fill-3"></path>
                    <path d="M66.0147298,23.0162514 L66.0147298,14.5058189 C66.0147298,11.3066027 64.1253707,10.0133595 61.8929011,10.0133595 C60.2421884,10.0133595 58.3861497,10.7964405 55.8429895,12.838873 L55.8429895,10.0133595 C54.0229729,10.9320081 50.6873265,11.8854405 49.8291,12.0210081 L49.8291,13.1117919 C50.207332,12.9735486 50.5855641,12.9075486 50.7908901,12.9075486 C51.6860392,12.9075486 51.9255862,13.3151432 51.9255862,14.2337919 L51.9255862,22.9475757 C51.9255862,24.0356838 51.3078072,24.5458459 50.241553,24.5458459 L49.9686856,24.5458459 L49.9686856,25.5661703 C51.0655586,25.5349541 52.8198348,25.4662784 53.8842878,25.4662784 C54.9496414,25.4662784 56.7030171,25.5349541 57.8043928,25.5661703 L57.8043928,24.5458459 L57.5270227,24.5458459 C56.4625696,24.5458459 55.8429895,24.0356838 55.8429895,22.9475757 L55.8429895,13.8574135 C57.1848127,12.7015216 58.4212713,12.2582514 59.5892878,12.2582514 C60.655542,12.2582514 62.0982271,12.5650622 62.0982271,14.9490892 L62.0982271,22.3348459 C62.0982271,24.2747108 61.5822105,24.5458459 59.7955144,24.5458459 L59.7955144,25.5661703 C60.792426,25.5349541 62.7511276,25.4662784 63.9533652,25.4662784 C65.1565033,25.4662784 67.1161055,25.5349541 68.1130171,25.5661703 L68.1130171,24.5458459 C66.8063155,24.5458459 66.0147298,24.2390351 66.0147298,23.0162514" id="Fill-5"></path>
                    <path d="M76.5663232,11.0349324 C79.0059199,11.0349324 79.3841519,13.142473 79.3841519,16.3773649 L73.4387044,16.3773649 C73.4720249,13.620527 73.8853785,11.0349324 76.5663232,11.0349324 M78.7987928,24.5114189 C76.5663232,24.5114189 73.4720249,22.4012027 73.4387044,17.3976892 L83.5753232,17.3976892 C83.5753232,11.6815541 80.0370525,10.0128243 77.3912293,10.0128243 C73.3351409,10.0128243 69.2466326,12.4967432 69.2466326,18.2503378 C69.2466326,22.1978514 71.7888923,25.8046622 77.3912293,25.8046622 C79.762384,25.8046622 81.7210856,25.3979595 83.4735608,24.2385 L83.2664337,21.5851216 C81.8570691,23.7970135 80.3441409,24.5114189 78.7987928,24.5114189" id="Fill-7"></path>
                    <path d="M94.2625398,10.2514946 L94.2625398,11.2718189 L94.7092138,11.2718189 C96.222142,11.2718189 96.4968105,11.6811973 96.4968105,12.326927 C96.4968105,12.4963865 96.427468,12.9075486 96.222142,13.4498189 L93.7141033,20.5644405 L90.482921,13.0761162 C90.311816,12.7015216 90.2766945,12.3956027 90.2766945,12.1922514 C90.2766945,11.6473054 90.7233685,11.2718189 91.581595,11.2718189 L92.2362967,11.2718189 L92.2362967,10.2514946 C90.8278326,10.2862784 88.7646669,10.3531703 87.8713188,10.3531703 C86.9770702,10.3531703 84.9139044,10.2862784 83.5072414,10.2514946 L83.5072414,11.2718189 C84.3330481,11.3396027 85.3623796,11.5438459 85.8783961,12.7015216 L91.7896227,25.6348459 C90.8278326,29.2434405 89.4517884,30.2985486 88.0433243,30.2985486 C86.7024017,30.2985486 85.9468381,29.5163595 85.8090536,27.9831973 L84.8139431,27.9831973 L85.017468,32.2036297 C85.6037276,32.4069811 86.1170425,32.5452243 86.8401862,32.5452243 C89.1077773,32.5452243 90.895374,31.8308189 92.8198547,26.6908459 L97.801711,13.4846027 C98.4555122,11.7819811 99.2110757,11.4082784 100.243109,11.2718189 L100.243109,10.2514946 C99.4533243,10.2862784 98.5590757,10.3531703 97.2874956,10.3531703 C95.9807939,10.3531703 95.089247,10.2862784 94.2625398,10.2514946" id="Fill-9"></path>
                    <g id="Group-13" transform="translate(96.359116, 0.437205)">
                        <path d="M26.0289387,19.105127 L19.3270271,0.454775676 L18.707447,0.454775676 L12.899784,19.0373432 L12.8322425,19.0373432 L7.88190552,5.18626216 C7.47035304,4.06069459 7.4010105,3.68699189 7.4010105,3.34628919 C7.4010105,2.42853243 8.0890326,1.91747838 9.22372873,1.91747838 L10.1170768,1.91747838 L10.1170768,0.896262162 C7.19658508,0.99882973 6.0609884,0.99882973 5.0658779,0.99882973 C4.06986685,0.99882973 2.93336961,0.99882973 0.0119773481,0.896262162 L0.0119773481,1.91747838 C1.83469558,2.01915405 2.3498116,2.25728919 3.3467232,5.04801892 L10.8717398,25.3671 L11.9037729,25.3671 L17.679016,8.04299189 L17.7456569,8.04299189 L24.104458,25.3671 L25.1013696,25.3671 L26.6476182,20.8291541 L26.0748669,19.1568568" id="Fill-11"></path>
                    </g>
                    <path d="M130.975003,22.9479324 L130.975003,10.6594459 C129.154086,11.5780946 125.82024,12.5306351 124.960213,12.6662027 L124.960213,13.7543108 C125.340246,13.6196351 125.717577,13.5527432 125.923804,13.5527432 C126.816251,13.5527432 127.0585,13.9612297 127.0585,14.8798784 L127.0585,22.9479324 C127.0585,24.0360405 126.43982,24.5462027 125.373566,24.5462027 L125.097997,24.5462027 L125.097997,25.566527 C126.198472,25.5353108 127.951848,25.4657432 129.016301,25.4657432 C130.081655,25.4657432 131.83413,25.5353108 132.933704,25.566527 L132.933704,24.5462027 L132.659036,24.5462027 C131.593682,24.5462027 130.975003,24.0360405 130.975003,22.9479324" id="Fill-14"></path>
                    <path d="M138.085315,13.1427405 C138.085315,11.7817135 139.21911,11.0352 140.627575,11.0352 C142.758282,11.0352 144.132525,12.6673622 144.442315,14.6411189 L145.405906,14.6411189 L145.267221,10.6588216 C143.791215,10.251227 142.343127,10.0130919 140.937365,10.0130919 C136.948818,10.0130919 135.060359,12.0546324 135.060359,14.6759027 C135.060359,19.7819838 142.929387,19.7150919 142.929387,22.6404973 C142.929387,23.9337405 141.659608,24.7846054 140.009796,24.7846054 C138.25642,24.7846054 136.400381,23.9007405 135.953707,21.075227 L134.922575,21.075227 L134.922575,24.7846054 C136.469724,25.4990108 138.326663,25.8049297 139.423536,25.8049297 C143.685851,25.8049297 145.952541,23.7963892 145.952541,21.0065514 C145.952541,16.2063892 138.085315,16.0369297 138.085315,13.1427405" id="Fill-16"></path>
                    <path d="M155.163302,11.0349324 C157.6047,11.0349324 157.98023,13.142473 157.98023,16.3773649 L152.038385,16.3773649 C152.069904,13.620527 152.484159,11.0349324 155.163302,11.0349324 M157.397573,24.5114189 C155.163302,24.5114189 152.069904,22.4012027 152.038385,17.3976892 L162.175004,17.3976892 C162.175004,11.6815541 158.634031,10.0128243 155.989109,10.0128243 C151.93302,10.0128243 147.846313,12.4967432 147.846313,18.2503378 C147.846313,22.1978514 150.384971,25.8046622 155.989109,25.8046622 C158.360264,25.8046622 160.320766,25.3979595 162.07144,24.2385 L161.865214,21.5851216 C160.455849,23.7970135 158.942921,24.5114189 157.397573,24.5114189" id="Fill-18"></path>
                    <path d="M131.531634,4.01868649 C131.531634,5.6784973 130.1718,7.02347027 128.495872,7.02347027 C126.820844,7.02347027 125.46191,5.6784973 125.46191,4.01868649 C125.46191,2.35709189 126.820844,1.01122703 128.495872,1.01122703 C130.1718,1.01122703 131.531634,2.35709189 131.531634,4.01868649" id="Fill-20"></path>
                </g>
            </g>
        </g>
    </g>
</svg>